<svg xmlns="http://www.w3.org/2000/svg" version="1.1" xmlnsXlink="http://www.w3.org/1999/xlink" xmlnsSvgjs="http://svgjs.dev/svgjs" width="2000" height="444" viewBox="0 0 2000 444"><g transform="matrix(1,0,0,1,-1.2121155847095224,-1.2508546945113892)"><svg viewBox="0 0 396 88" data-background-color="#ffffff" preserveAspectRatio="xMidYMid meet" height="444" width="2000" xmlns="http://www.w3.org/2000/svg" xmlnsXlink="http://www.w3.org/1999/xlink"><defs></defs><g id="tight-bounds" transform="matrix(1,0,0,1,0.2399988857724793,0.2479171466599155)"><svg viewBox="0 0 395.52 87.50415235460413" height="87.50415235460413" width="395.52"><g><svg viewBox="0 0 507.26323634411585 112.226030332082" height="87.50415235460413" width="395.52"><g><rect width="7.323197708111764" height="81.61154883049379" x="85.24936400743924" y="15.307240750794108" fill="#3d3839" opacity="1" stroke-width="0" stroke="transparent" fill-opacity="1" class="rect-o-0" data-fill-palette-color="primary" rx="1%" id="o-0" data-palette-color="#3d3839"></rect></g><g transform="matrix(1,0,0,1,111.74323634411583,15.510254553855034)"><svg viewBox="0 0 395.52 81.20552122437194" height="81.20552122437194" width="395.52"><g><svg viewBox="0 0 395.52 81.20552122437194" height="81.20552122437194" width="395.52"><g><svg viewBox="0 0 395.52 81.20552122437194" height="81.20552122437194" width="395.52"><g transform="matrix(1,0,0,1,0,0)"><svg width="395.52" viewBox="2.049999952316284 -33.599998474121094 175.52999877929688 35.54999923706055" height="81.20552122437194" data-palette-color="#3d3839"><g class="undefined-text-0" data-fill-palette-color="primary" id="text-0"><path d="M22.7-17.15Q26.05-16.6 27.18-14.83 28.3-13.05 28.3-10.65L28.3-10.65Q28.3-10.15 28.25-9.9L28.25-9.9Q27.3-3.8 23.15-1.23 19 1.35 13.35 1.35L13.35 1.35Q11.9 1.35 10.23 1.03 8.55 0.7 7.5 0.1L7.5 0.1Q6.75 0.65 4.7 0.65L4.7 0.65Q3.35 0.65 2.8-0.43 2.25-1.5 2.25-3.05L2.25-3.05Q2.25-3.6 2.4-4.1L2.4-4.1 8-26.5Q4.45-25.3 3.6-24L3.6-24Q2.05-25.65 2.05-27.05L2.05-27.05Q2.05-28.15 2.9-29.3L2.9-29.3Q4.9-30.6 9.4-31.75L9.4-31.75Q9.8-32.8 10.43-33.2 11.05-33.6 12.3-33.6L12.3-33.6Q13.35-33.6 14.28-33.4 15.2-33.2 15.6-32.8L15.6-32.8Q18-33.1 20.45-33.1L20.45-33.1Q25.55-33.1 27.95-31.08 30.35-29.05 30.35-25.45L30.35-25.45Q30.35-22.4 28.2-20.23 26.05-18.05 22.7-17.15L22.7-17.15ZM12.55-18.45Q23.5-19.35 23.5-24.85L23.5-24.85Q23.5-26.4 22.55-27.28 21.6-28.15 19.3-28.15L19.3-28.15Q17.25-28.15 14.75-27.9L14.75-27.9 12.55-18.45ZM12.7-3.5Q14.95-3.5 17.07-4.33 19.2-5.15 20.55-6.68 21.9-8.2 21.9-10.25L21.9-10.25Q21.9-11.95 20.73-13.18 19.55-14.4 17.45-14.4L17.45-14.4Q13.5-14.4 11.75-14.1L11.75-14.1Q10.95-11.4 9.1-4.1L9.1-4.1Q10.7-3.5 12.7-3.5L12.7-3.5ZM52.5-0.15Q52.3 0.7 51.6 1.03 50.9 1.35 49.75 1.35L49.75 1.35Q46.3 1.35 46.3-0.2L46.3-0.2 46.6-2.1Q45.2-1.05 43.3 0 41.4 1.05 40.15 1.05L40.15 1.05Q32.75 1.05 32.75-3.8L32.75-3.8Q32.75-12.05 37.7-21.7L37.7-21.7Q38.3-22.85 38.97-23.35 39.65-23.85 41.3-23.85L41.3-23.85Q43.05-23.85 43.92-23.38 44.8-22.9 44.8-22.25L44.8-22.25Q44.8-22.1 44.25-21.35L44.25-21.35Q43.7-20.7 43.3-20.05L43.3-20.05Q38.6-12.2 38.6-4.75L38.6-4.75Q38.6-4.1 39.1-3.6 39.6-3.1 40-3.1L40-3.1Q41.1-3.1 43.72-4.15 46.35-5.2 47.75-6.3L47.75-6.3 48.75-10.35Q50.55-17.6 51-19.25L51-19.25Q51.55-21.25 52.42-22.53 53.3-23.8 55.2-23.8L55.2-23.8Q57.85-23.8 57.85-22.2L57.85-22.2Q57.85-21.95 57.72-21.58 57.6-21.2 57.55-20.95L57.55-20.95 55.55-12.85Q53.15-3.2 52.5-0.15L52.5-0.15ZM69.84-18.1L66.69-5.5Q66.69-4.35 67.3-3.68 67.89-3 69-3L69-3Q70.5-3 71.47-3.88 72.44-4.75 73.55-6.35L73.55-6.35Q74.34-7.5 74.84-8 75.34-8.5 76-8.5L76-8.5Q77.3-8.5 77.84-8.18 78.39-7.85 78.39-6.85L78.39-6.85Q78.39-6.4 78.3-5.78 78.19-5.15 78.05-4.85L78.05-4.85Q76.84-2.3 74.12-0.45 71.39 1.4 67.94 1.4L67.94 1.4Q64.5 1.4 62.74-0.28 60.99-1.95 60.99-5.05L60.99-5.05Q60.99-5.5 61.45-7.4 61.89-9.3 62.59-11.95L62.59-11.95 63.99-17.65 60.95-17.4Q60.34-17.4 60.05-17.85 59.74-18.3 59.74-18.95L59.74-18.95Q59.74-20.2 60.64-21.45L60.64-21.45Q60.74-21.6 61.64-21.75 62.55-21.9 63.84-22.05L63.84-22.05 65.19-22.2 66.89-29.5Q67.39-30.8 68.42-31.53 69.44-32.25 70.34-32.25L70.34-32.25Q71.34-32.25 72.05-31.65 72.75-31.05 72.8-30.25L72.8-30.25 71-22.75Q72.94-23 74.62-23.18 76.3-23.35 77.25-23.35L77.25-23.35Q79.14-23.35 79.14-21.15L79.14-21.15Q79.14-20.3 78.42-19.63 77.69-18.95 76.84-18.8L76.84-18.8 69.84-18.1ZM91.69-18.1L88.54-5.5Q88.54-4.35 89.14-3.68 89.74-3 90.84-3L90.84-3Q92.34-3 93.32-3.88 94.29-4.75 95.39-6.35L95.39-6.35Q96.19-7.5 96.69-8 97.19-8.5 97.84-8.5L97.84-8.5Q99.14-8.5 99.69-8.18 100.24-7.85 100.24-6.85L100.24-6.85Q100.24-6.4 100.14-5.78 100.04-5.15 99.89-4.85L99.89-4.85Q98.69-2.3 95.97-0.45 93.24 1.4 89.79 1.4L89.79 1.4Q86.34 1.4 84.59-0.28 82.84-1.95 82.84-5.05L82.84-5.05Q82.84-5.5 83.29-7.4 83.74-9.3 84.44-11.95L84.44-11.95 85.84-17.65 82.79-17.4Q82.19-17.4 81.89-17.85 81.59-18.3 81.59-18.95L81.59-18.95Q81.59-20.2 82.49-21.45L82.49-21.45Q82.59-21.6 83.49-21.75 84.39-21.9 85.69-22.05L85.69-22.05 87.04-22.2 88.74-29.5Q89.24-30.8 90.27-31.53 91.29-32.25 92.19-32.25L92.19-32.25Q93.19-32.25 93.89-31.65 94.59-31.05 94.64-30.25L94.64-30.25 92.84-22.75Q94.79-23 96.47-23.18 98.14-23.35 99.09-23.35L99.09-23.35Q100.99-23.35 100.99-21.15L100.99-21.15Q100.99-20.3 100.27-19.63 99.54-18.95 98.69-18.8L98.69-18.8 91.69-18.1ZM112.64 1.05Q108.24 1.05 105.79-1.95 103.34-4.95 103.34-9.6L103.34-9.6Q103.34-13.5 105.21-16.95 107.09-20.4 110.34-22.5 113.59-24.6 117.49-24.6L117.49-24.6Q121.34-24.6 123.81-22.08 126.29-19.55 126.29-14.65L126.29-14.65Q126.29-11.2 124.39-7.5 122.49-3.8 119.31-1.38 116.14 1.05 112.64 1.05L112.64 1.05ZM113.39-2.95Q114.99-2.95 116.61-4.95 118.24-6.95 119.29-10 120.34-13.05 120.34-15.95L120.34-15.95Q120.34-20.4 116.64-20.4L116.64-20.4Q114.59-20.4 112.89-18.45 111.19-16.5 110.19-13.63 109.19-10.75 109.19-8.25L109.19-8.25Q109.19-6.8 109.84-5.58 110.49-4.35 111.46-3.65 112.44-2.95 113.39-2.95L113.39-2.95ZM131.59-22.85Q131.44-23 131.44-23.2L131.44-23.2Q131.44-23.7 132.54-24.03 133.64-24.35 135.59-24.35L135.59-24.35Q137.39-24.35 138.24-23.43 139.09-22.5 139.24-21.2L139.24-21.2 138.34-17.95Q139.39-19.4 141.29-20.73 143.19-22.05 145.14-22.85 147.09-23.65 148.34-23.65L148.34-23.65Q150.99-23.65 152.19-22.68 153.39-21.7 153.39-19.6L153.39-19.6Q150.44-11.9 149.49-3L149.49-3 150.19-0.55Q149.59 0.6 148.51 1.28 147.44 1.95 145.39 1.95L145.39 1.95Q144.19 1.95 143.64 1.15 143.09 0.35 143.09-0.85L143.09-0.85Q143.09-4.2 144.06-8.22 145.04-12.25 146.34-16.45L146.34-16.45Q146.84-18.05 146.84-18.1L146.84-18.1Q146.84-18.8 146.04-18.8L146.04-18.8Q144.94-18.8 142.71-17.25 140.49-15.7 138.14-12.03 135.79-8.35 134.34-2.4L134.34-2.4Q134.24-2.1 134.09-1.3 133.94-0.5 133.29-0.18 132.64 0.15 131.19 0.15L131.19 0.15Q129.54 0.15 128.76-0.2 127.99-0.55 127.99-1.7L127.99-1.7Q128.14-2.4 128.44-3.4L128.44-3.4Q131.34-15.05 132.89-21.35L132.89-21.35 131.59-22.85ZM171.88-19.35Q171.28-19.65 170.38-19.65L170.38-19.65Q168.13-19.65 165.88-18.75 163.63-17.85 163.63-16.45L163.63-16.45Q163.63-15.45 164.53-14.85 165.44-14.25 167.38-13.5L167.38-13.5Q169.48-12.65 170.78-11.9 172.08-11.15 173.06-9.73 174.03-8.3 174.03-6.1L174.03-6.1Q174.03-2.5 171.06-0.58 168.08 1.35 163.08 1.35L163.08 1.35Q160.63 1.35 158.53 0.6 156.44-0.15 155.21-1.33 153.98-2.5 153.88-3.65L153.88-3.65Q153.88-4.85 154.94-5.63 155.98-6.4 157.88-6.65L157.88-6.65Q157.94-5.65 158.94-4.78 159.94-3.9 161.31-3.38 162.69-2.85 163.69-2.85L163.69-2.85Q165.38-2.85 166.78-3.78 168.19-4.7 168.19-5.95L168.19-5.95Q168.19-8.25 163.73-9.6L163.73-9.6Q160.88-10.45 159.36-12.3 157.83-14.15 157.83-16.2L157.83-16.2Q157.83-20.25 161.51-22.03 165.19-23.8 170.88-23.8L170.88-23.8Q174.08-23.8 175.83-23.05 177.58-22.3 177.58-20.45L177.58-20.45Q177.58-19.2 176.66-18.25 175.73-17.3 174.03-17.3L174.03-17.3Q172.53-17.3 172.11-17.53 171.69-17.75 171.63-18.3L171.63-18.3Q171.63-18.8 171.88-19.35L171.88-19.35Z" fill="#3d3839" data-fill-palette-color="primary"></path></g></svg></g></svg></g></svg></g></svg></g><g><svg viewBox="0 0 66.07868937887442 112.226030332082" height="112.226030332082" width="66.07868937887442"><g><svg version="1.0" xmlns="http://www.w3.org/2000/svg" xmlnsXlink="http://www.w3.org/1999/xlink" x="0" y="0" viewBox="0 0 58.8799934387207 99.99998474121094" enable-background="new 0 0 58.88 100" xml:space="preserve" width="66.07868937887442" height="112.226030332082" class="icon-icon-0" data-fill-palette-color="accent" id="icon-0"><path d="M50.642 54.731l-19.77-1.998c0-9.485-0.749-18.97-0.749-28.456 0-2.857-2.383-5.241-5.241-5.241-2.859 0-3.895 2.383-3.895 5.241 0 12.443 0 27.497 0 39.94-1.608-2.174-7.785-8.634-7.863-8.736-2.034-2.751-8.965-4.386-12.165-2.512-2.717 1.593 2.259 5.438 4.302 8.201 7.416 10.026 13.29 19.999 20.706 30.025 0.86 1.714 2.02 3.251 3.412 4.544 0.7 0.783 1.521 1.42 2.414 1.849 2.447 1.527 5.337 2.412 8.433 2.412 8.376 0 15.239-6.458 15.895-14.665 0.033-0.241 0.057-0.486 0.057-0.736l2.702-23.577C58.88 58.043 53.621 54.731 50.642 54.731z" fill="#ffc604" data-fill-palette-color="accent"></path><path d="M17.865 47.69c0-1.888 0-3.771 0-5.649C10.599 39.41 5.391 32.442 5.391 24.277c0-10.413 8.473-18.886 18.886-18.886 10.413 0 18.887 8.473 18.887 18.886 0 6.921-3.744 12.979-9.311 16.269 0.078 1.978 0.157 3.956 0.23 5.933 8.515-3.776 14.471-12.303 14.471-22.201C48.555 10.891 37.665 0 24.277 0 10.891 0 0 10.891 0 24.277 0 35.445 7.582 44.87 17.865 47.69z" fill="#ffc604" data-fill-palette-color="accent"></path></svg></g></svg></g></svg></g></svg><rect width="395.52" height="87.50415235460413" fill="none" stroke="none" visibility="hidden"></rect></g></svg></g></svg>